<svg width="163" height="35" viewBox="0 0 163 35" fill="none" xmlns="http://www.w3.org/2000/svg">
<path d="M3.60612 20.96L4.32613 19.04H11.7661L12.4861 20.96H3.60612ZM7.99813 12.992L5.16613 19.664L4.97413 20.096L2.47813 26H0.198125L7.99813 8.36L15.7981 26H13.5181L11.0701 20.24L10.8781 19.76L7.99813 12.992ZM24.8019 19.28C24.8019 18.368 24.6019 17.68 24.2019 17.216C23.8019 16.752 23.2179 16.52 22.4499 16.52C21.8899 16.52 21.3939 16.64 20.9619 16.88C20.5459 17.104 20.2179 17.424 19.9779 17.84C19.7539 18.256 19.6419 18.736 19.6419 19.28V26H17.7219V14.96H19.6419V16.688C20.0099 16.016 20.4659 15.52 21.0099 15.2C21.5699 14.88 22.2099 14.72 22.9299 14.72C24.0979 14.72 25.0179 15.112 25.6899 15.896C26.3779 16.664 26.7219 17.712 26.7219 19.04V26H24.8019V19.28ZM51.8019 19.28C51.8019 18.368 51.6019 17.68 51.2019 17.216C50.8019 16.752 50.2179 16.52 49.4499 16.52C48.8899 16.52 48.3939 16.64 47.9619 16.88C47.5459 17.104 47.2179 17.424 46.9779 17.84C46.7539 18.256 46.6419 18.736 46.6419 19.28V26H44.7219V14.96H46.6419V16.688C47.0099 16.016 47.4659 15.52 48.0099 15.2C48.5699 14.88 49.2099 14.72 49.9299 14.72C51.0979 14.72 52.0179 15.112 52.6899 15.896C53.3779 16.664 53.7219 17.712 53.7219 19.04V26H51.8019V19.28ZM65.9741 14.96L58.7741 31.28H56.6141L59.6381 24.44L55.4141 14.96H57.6941L61.1981 23.6L60.4061 23.504L63.8141 14.96H65.9741ZM82.9044 19.04V26H80.9844V19.28C80.9844 18.336 80.8084 17.64 80.4564 17.192C80.1204 16.744 79.5924 16.52 78.8724 16.52C78.3444 16.52 77.8884 16.632 77.5044 16.856C77.1204 17.064 76.8244 17.376 76.6164 17.792C76.4084 18.208 76.3044 18.704 76.3044 19.28V26H74.3844V19.28C74.3844 18.336 74.2084 17.64 73.8564 17.192C73.5204 16.744 72.9924 16.52 72.2724 16.52C71.7444 16.52 71.2884 16.632 70.9044 16.856C70.5204 17.064 70.2244 17.376 70.0164 17.792C69.8084 18.208 69.7044 18.704 69.7044 19.28V26H67.7844V14.96H69.7044V16.568C70.0404 15.944 70.4564 15.48 70.9524 15.176C71.4644 14.872 72.0644 14.72 72.7524 14.72C73.5204 14.72 74.1764 14.904 74.7204 15.272C75.2804 15.624 75.6884 16.128 75.9444 16.784C76.3284 16.096 76.8084 15.584 77.3844 15.248C77.9604 14.896 78.6164 14.72 79.3524 14.72C80.1044 14.72 80.7444 14.888 81.2724 15.224C81.8004 15.56 82.2004 16.056 82.4724 16.712C82.7604 17.352 82.9044 18.128 82.9044 19.04ZM86.5109 10.4C86.5109 10.032 86.6389 9.72 86.8949 9.464C87.1669 9.208 87.4789 9.08 87.8309 9.08C88.1989 9.08 88.5109 9.208 88.7669 9.464C89.0229 9.72 89.1509 10.032 89.1509 10.4C89.1509 10.752 89.0229 11.064 88.7669 11.336C88.5109 11.592 88.1989 11.72 87.8309 11.72C87.4789 11.72 87.1669 11.592 86.8949 11.336C86.6389 11.064 86.5109 10.752 86.5109 10.4ZM86.8709 14.96H88.7909V26H86.8709V14.96ZM98.1453 16.76H92.0253V14.96H101.625L94.7853 24.2H101.145V26H91.3053L98.1453 16.76ZM104.528 20.912C104.912 21.584 105.312 22.176 105.728 22.688C106.16 23.2 106.64 23.6 107.168 23.888C107.696 24.176 108.296 24.32 108.968 24.32C109.864 24.32 110.584 24.072 111.128 23.576C111.672 23.08 111.944 22.448 111.944 21.68C111.944 20.928 111.768 20.328 111.416 19.88C111.064 19.432 110.6 19.072 110.024 18.8C109.464 18.512 108.864 18.256 108.224 18.032C107.808 17.888 107.344 17.704 106.832 17.48C106.32 17.24 105.832 16.944 105.368 16.592C104.904 16.224 104.52 15.776 104.216 15.248C103.928 14.72 103.784 14.072 103.784 13.304C103.784 12.472 103.992 11.728 104.408 11.072C104.824 10.416 105.4 9.904 106.136 9.536C106.872 9.152 107.712 8.96 108.656 8.96C109.568 8.96 110.36 9.136 111.032 9.488C111.72 9.824 112.304 10.264 112.784 10.808C113.264 11.336 113.64 11.896 113.912 12.488L112.16 13.496C111.952 13.08 111.688 12.672 111.368 12.272C111.048 11.872 110.656 11.544 110.192 11.288C109.744 11.032 109.192 10.904 108.536 10.904C107.624 10.904 106.96 11.128 106.544 11.576C106.128 12.008 105.92 12.496 105.92 13.04C105.92 13.504 106.04 13.936 106.28 14.336C106.52 14.72 106.92 15.088 107.48 15.44C108.056 15.776 108.832 16.112 109.808 16.448C110.256 16.608 110.728 16.816 111.224 17.072C111.72 17.328 112.176 17.656 112.592 18.056C113.024 18.44 113.376 18.912 113.648 19.472C113.92 20.016 114.056 20.672 114.056 21.44C114.056 22.176 113.912 22.84 113.624 23.432C113.352 24.024 112.968 24.528 112.472 24.944C111.992 25.36 111.44 25.68 110.816 25.904C110.208 26.128 109.568 26.24 108.896 26.24C107.984 26.24 107.136 26.048 106.352 25.664C105.584 25.264 104.904 24.744 104.312 24.104C103.736 23.448 103.264 22.752 102.896 22.016L104.528 20.912ZM121.205 26.24C120.181 26.24 119.269 26 118.469 25.52C117.685 25.024 117.069 24.344 116.621 23.48C116.189 22.616 115.973 21.616 115.973 20.48C115.973 19.328 116.197 18.32 116.645 17.456C117.109 16.592 117.749 15.92 118.565 15.44C119.397 14.96 120.357 14.72 121.445 14.72C122.533 14.72 123.461 14.952 124.229 15.416C125.013 15.864 125.613 16.512 126.029 17.36C126.445 18.208 126.653 19.216 126.653 20.384C126.653 20.496 126.645 20.616 126.629 20.744C126.629 20.856 126.629 20.928 126.629 20.96H117.197V19.328H125.117L124.349 20.432C124.397 20.352 124.445 20.232 124.493 20.072C124.541 19.896 124.565 19.752 124.565 19.64C124.565 18.984 124.429 18.416 124.157 17.936C123.901 17.456 123.541 17.08 123.077 16.808C122.613 16.536 122.069 16.4 121.445 16.4C120.709 16.4 120.077 16.56 119.549 16.88C119.037 17.184 118.637 17.632 118.349 18.224C118.077 18.8 117.933 19.512 117.917 20.36C117.917 21.224 118.053 21.96 118.325 22.568C118.597 23.176 118.997 23.64 119.525 23.96C120.053 24.28 120.693 24.44 121.445 24.44C122.197 24.44 122.861 24.28 123.437 23.96C124.013 23.624 124.501 23.12 124.901 22.448L126.461 23.432C125.885 24.36 125.157 25.064 124.277 25.544C123.413 26.008 122.389 26.24 121.205 26.24ZM131.204 14.96V26H129.284V14.96H131.204ZM134.54 17.072C134.284 16.88 134.052 16.744 133.844 16.664C133.636 16.568 133.372 16.52 133.052 16.52C132.572 16.52 132.196 16.64 131.924 16.88C131.652 17.12 131.46 17.448 131.348 17.864C131.252 18.28 131.204 18.752 131.204 19.28H130.34C130.34 18.4 130.492 17.624 130.796 16.952C131.116 16.264 131.524 15.72 132.02 15.32C132.516 14.92 133.02 14.72 133.532 14.72C133.932 14.72 134.3 14.776 134.636 14.888C134.988 14.984 135.308 15.184 135.596 15.488L134.54 17.072ZM136.438 14.96H138.598L141.718 22.76L144.838 14.96H146.998L141.718 26.84L136.438 14.96ZM148.808 10.4C148.808 10.032 148.936 9.72 149.192 9.464C149.464 9.208 149.776 9.08 150.128 9.08C150.496 9.08 150.808 9.208 151.064 9.464C151.32 9.72 151.448 10.032 151.448 10.4C151.448 10.752 151.32 11.064 151.064 11.336C150.808 11.592 150.496 11.72 150.128 11.72C149.776 11.72 149.464 11.592 149.192 11.336C148.936 11.064 148.808 10.752 148.808 10.4ZM149.168 14.96H151.088V26H149.168V14.96ZM155.498 22.616C155.722 22.952 155.978 23.264 156.266 23.552C156.554 23.84 156.882 24.072 157.25 24.248C157.634 24.408 158.05 24.488 158.498 24.488C159.042 24.488 159.466 24.368 159.77 24.128C160.09 23.872 160.25 23.528 160.25 23.096C160.25 22.712 160.122 22.392 159.866 22.136C159.626 21.864 159.314 21.64 158.93 21.464C158.546 21.272 158.138 21.096 157.706 20.936C157.226 20.744 156.738 20.52 156.242 20.264C155.762 19.992 155.354 19.648 155.018 19.232C154.698 18.8 154.538 18.264 154.538 17.624C154.538 16.968 154.706 16.424 155.042 15.992C155.394 15.56 155.842 15.24 156.386 15.032C156.946 14.824 157.522 14.72 158.114 14.72C158.706 14.72 159.258 14.816 159.77 15.008C160.298 15.2 160.762 15.456 161.162 15.776C161.562 16.096 161.874 16.464 162.098 16.88L160.562 17.864C160.258 17.448 159.874 17.104 159.41 16.832C158.962 16.56 158.45 16.424 157.874 16.424C157.474 16.424 157.13 16.512 156.842 16.688C156.554 16.864 156.41 17.136 156.41 17.504C156.41 17.792 156.522 18.048 156.746 18.272C156.97 18.496 157.258 18.696 157.61 18.872C157.962 19.048 158.33 19.216 158.714 19.376C159.354 19.632 159.938 19.912 160.466 20.216C160.994 20.504 161.41 20.856 161.714 21.272C162.034 21.688 162.194 22.224 162.194 22.88C162.194 23.84 161.842 24.64 161.138 25.28C160.45 25.92 159.538 26.24 158.402 26.24C157.666 26.24 157.002 26.112 156.41 25.856C155.818 25.584 155.314 25.24 154.898 24.824C154.498 24.408 154.194 23.984 153.986 23.552L155.498 22.616Z" fill="white"/>
<path d="M36 10L38.2451 16.9098H45.5106L39.6327 21.1803L41.8779 28.0902L36 23.8197L30.1221 28.0902L32.3673 21.1803L26.4894 16.9098H33.7549L36 10Z" fill="#AEDFFF"/>
<path d="M36 12L37.7961 17.5279H43.6085L38.9062 20.9443L40.7023 26.4721L36 23.0557L31.2977 26.4721L33.0938 20.9443L28.3915 17.5279H34.2039L36 12Z" fill="#02252B"/>
</svg>
