<svg width="26" height="26" viewBox="0 0 26 26" fill="none" xmlns="http://www.w3.org/2000/svg">
<path d="M19.1498 20.5252L11.2727 16.9263L12.0945 25.5475L19.1498 20.5252ZM4.47904 8.37695L3.90015 7.9001C1.69181 10.581 0.478013 12.8301 0.116361 14.7207C-0.256051 16.6676 0.282627 18.2182 1.48578 19.3547C2.64172 20.4467 4.34797 21.0986 6.22891 21.4739C8.12558 21.8522 10.2892 21.9665 12.4484 21.9155L12.4307 21.1657L12.4129 20.4159C10.3192 20.4654 8.2742 20.3523 6.52237 20.0029C4.75482 19.6502 3.37265 19.0738 2.51585 18.2643C1.70625 17.4995 1.30785 16.4757 1.58965 15.0025C1.8822 13.4731 2.91389 11.4566 5.05793 8.8538L4.47904 8.37695Z" fill="black"/>
<path d="M7.14979 5.02877L15.0301 8.62049L14.2005 7.05719e-05L7.14979 5.02877ZM21.1827 17.177L21.7718 17.6412C23.8605 14.9903 25.0161 12.7653 25.376 10.8955C25.7447 8.98008 25.2734 7.43906 24.1595 6.29086C23.0856 5.18379 21.4851 4.51479 19.7171 4.1234C17.9354 3.72897 15.8972 3.5977 13.8553 3.63231L13.868 4.3822L13.8807 5.1321C15.8532 5.09866 17.7649 5.22755 19.3929 5.58794C21.0345 5.95136 22.3034 6.53183 23.0829 7.33531C23.8225 8.09766 24.1886 9.12829 23.903 10.612C23.6087 12.1414 22.6183 14.1431 20.5936 16.7128L21.1827 17.177Z" fill="black"/>
</svg>
