<svg width="25" height="22" viewBox="0 0 25 22" fill="none" xmlns="http://www.w3.org/2000/svg">
<path d="M11.4595 0.708292C11.7475 -0.236188 13.0846 -0.236188 13.3726 0.708292L14.8477 5.54641C15.016 6.09857 15.6156 6.39391 16.156 6.19086L21.4349 4.20714C22.42 3.83697 23.2349 5.04382 22.5235 5.81926L19.5366 9.07496C19.0694 9.58428 19.2474 10.4027 19.8839 10.672L24.2204 12.5062C25.2146 12.9268 24.9293 14.4064 23.85 14.4271L18.6087 14.5275C17.9676 14.5397 17.5035 15.1437 17.6568 15.7663L18.7457 20.189C18.9872 21.1697 17.788 21.8493 17.0707 21.1382L13.1201 17.2217C12.7303 16.8352 12.1018 16.8352 11.712 17.2217L7.76137 21.1382C7.04405 21.8493 5.84486 21.1697 6.08634 20.189L7.17523 15.7663C7.32853 15.1437 6.86448 14.5397 6.22338 14.5275L0.982053 14.4271C-0.0972219 14.4064 -0.382554 12.9268 0.611639 12.5062L4.94811 10.672C5.58469 10.4027 5.76268 9.58428 5.29541 9.07496L2.30853 5.81926C1.59712 5.04382 2.41209 3.83697 3.39717 4.20714L8.67609 6.19086C9.21646 6.39391 9.81604 6.09857 9.98439 5.54641L11.4595 0.708292Z" fill="#850000"/>
</svg>
